<svg width="375" height="285" viewBox="0 0 375 285" fill="none" xmlns="http://www.w3.org/2000/svg">
<rect x="-29.5" y="1.5" width="59" height="59" rx="11.5" fill="#F7F8FA"/>
<rect x="-29.5" y="1.5" width="59" height="59" rx="11.5" stroke="#DCE4E6"/>
<rect x="36.5" y="1.5" width="59" height="59" rx="11.5" stroke="#DCE4E6"/>
<path d="M56.6663 35.6666V21.6666H54.333V19.3333H57.833C58.1424 19.3333 58.4392 19.4562 58.658 19.675C58.8768 19.8938 58.9997 20.1905 58.9997 20.4999V34.4999H73.5107L75.844 25.1666H61.333V22.8333H77.3397C77.517 22.8333 77.692 22.8737 77.8514 22.9515C78.0108 23.0293 78.1503 23.1424 78.2594 23.2822C78.3685 23.422 78.4443 23.5848 78.481 23.7583C78.5177 23.9318 78.5144 24.1114 78.4713 24.2834L75.5547 35.9501C75.4915 36.2024 75.3458 36.4263 75.1407 36.5863C74.9357 36.7463 74.6831 36.8332 74.423 36.8333H57.833C57.5236 36.8333 57.2268 36.7103 57.008 36.4915C56.7893 36.2728 56.6663 35.976 56.6663 35.6666ZM58.9997 43.8333C58.3808 43.8333 57.7873 43.5874 57.3498 43.1498C56.9122 42.7122 56.6663 42.1188 56.6663 41.4999C56.6663 40.8811 56.9122 40.2876 57.3498 39.85C57.7873 39.4124 58.3808 39.1666 58.9997 39.1666C59.6185 39.1666 60.212 39.4124 60.6496 39.85C61.0872 40.2876 61.333 40.8811 61.333 41.4999C61.333 42.1188 61.0872 42.7122 60.6496 43.1498C60.212 43.5874 59.6185 43.8333 58.9997 43.8333ZM72.9997 43.8333C72.3808 43.8333 71.7873 43.5874 71.3498 43.1498C70.9122 42.7122 70.6663 42.1188 70.6663 41.4999C70.6663 40.8811 70.9122 40.2876 71.3498 39.85C71.7873 39.4124 72.3808 39.1666 72.9997 39.1666C73.6185 39.1666 74.212 39.4124 74.6496 39.85C75.0872 40.2876 75.333 40.8811 75.333 41.4999C75.333 42.1188 75.0872 42.7122 74.6496 43.1498C74.212 43.5874 73.6185 43.8333 72.9997 43.8333Z" fill="#3D3F45"/>
<rect x="102.5" y="1.5" width="59" height="59" rx="11.5" fill="#F7F8FA"/>
<rect x="102.5" y="1.5" width="59" height="59" rx="11.5" stroke="#DCE4E6"/>
<rect x="168.5" y="1.5" width="59" height="59" rx="11.5" stroke="#DCE4E6"/>
<path d="M187.5 25.1666L197.352 18.5983C197.544 18.4704 197.77 18.4021 198 18.4021C198.23 18.4021 198.456 18.4704 198.648 18.5983L208.5 25.1666V41.4999C208.5 41.8094 208.377 42.1061 208.158 42.3249C207.939 42.5437 207.643 42.6666 207.333 42.6666H188.667C188.357 42.6666 188.061 42.5437 187.842 42.3249C187.623 42.1061 187.5 41.8094 187.5 41.4999V25.1666ZM189.833 26.4149V40.3333H206.167V26.4149L198 20.9713L189.833 26.4149ZM193.333 35.6666H202.667V37.9999H193.333V35.6666ZM193.333 32.1666H202.667V34.4999H193.333V32.1666ZM198 29.8333C197.381 29.8333 196.788 29.5874 196.35 29.1499C195.912 28.7123 195.667 28.1188 195.667 27.4999C195.667 26.8811 195.912 26.2876 196.35 25.85C196.788 25.4124 197.381 25.1666 198 25.1666C198.619 25.1666 199.212 25.4124 199.65 25.85C200.087 26.2876 200.333 26.8811 200.333 27.4999C200.333 28.1188 200.087 28.7123 199.65 29.1499C199.212 29.5874 198.619 29.8333 198 29.8333Z" fill="#3D3F45"/>
<rect x="234.5" y="1.5" width="59" height="59" rx="11.5" fill="#F7F8FA"/>
<rect x="234.5" y="1.5" width="59" height="59" rx="11.5" stroke="#DCE4E6"/>
<rect x="300.5" y="1.5" width="59" height="59" rx="11.5" stroke="#DCE4E6"/>
<path d="M324.167 26.3334V24.0001C324.167 22.453 324.781 20.9693 325.875 19.8753C326.969 18.7813 328.453 18.1667 330 18.1667C331.547 18.1667 333.031 18.7813 334.125 19.8753C335.219 20.9693 335.833 22.453 335.833 24.0001V26.3334H339.333C339.643 26.3334 339.939 26.4563 340.158 26.6751C340.377 26.8939 340.5 27.1907 340.5 27.5001V41.5001C340.5 41.8095 340.377 42.1062 340.158 42.325C339.939 42.5438 339.643 42.6667 339.333 42.6667H320.667C320.357 42.6667 320.061 42.5438 319.842 42.325C319.623 42.1062 319.5 41.8095 319.5 41.5001V27.5001C319.5 27.1907 319.623 26.8939 319.842 26.6751C320.061 26.4563 320.357 26.3334 320.667 26.3334H324.167ZM324.167 28.6667H321.833V40.3334H338.167V28.6667H335.833V31.0001H333.5V28.6667H326.5V31.0001H324.167V28.6667ZM326.5 26.3334H333.5V24.0001C333.5 23.0718 333.131 22.1816 332.475 21.5252C331.818 20.8688 330.928 20.5001 330 20.5001C329.072 20.5001 328.182 20.8688 327.525 21.5252C326.869 22.1816 326.5 23.0718 326.5 24.0001V26.3334Z" fill="#3D3F45"/>
<rect x="366.5" y="1.5" width="59" height="59" rx="11.5" fill="#F7F8FA"/>
<rect x="366.5" y="1.5" width="59" height="59" rx="11.5" stroke="#DCE4E6"/>
<rect x="-29.5" y="67.5" width="59" height="59" rx="11.5" fill="#F7F8FA"/>
<rect x="-29.5" y="67.5" width="59" height="59" rx="11.5" stroke="#DCE4E6"/>
<rect x="36.5" y="67.5" width="59" height="59" rx="11.5" stroke="#DCE4E6"/>
<path d="M56.6663 101.667V87.6666H54.333V85.3333H57.833C58.1424 85.3333 58.4392 85.4562 58.658 85.675C58.8768 85.8938 58.9997 86.1905 58.9997 86.4999V100.5H73.5107L75.844 91.1666H61.333V88.8333H77.3397C77.517 88.8333 77.692 88.8737 77.8514 88.9515C78.0108 89.0293 78.1503 89.1424 78.2594 89.2822C78.3685 89.422 78.4443 89.5848 78.481 89.7583C78.5177 89.9318 78.5144 90.1114 78.4713 90.2834L75.5547 101.95C75.4915 102.202 75.3458 102.426 75.1407 102.586C74.9357 102.746 74.6831 102.833 74.423 102.833H57.833C57.5236 102.833 57.2268 102.71 57.008 102.492C56.7893 102.273 56.6663 101.976 56.6663 101.667ZM58.9997 109.833C58.3808 109.833 57.7873 109.587 57.3498 109.15C56.9122 108.712 56.6663 108.119 56.6663 107.5C56.6663 106.881 56.9122 106.288 57.3498 105.85C57.7873 105.412 58.3808 105.167 58.9997 105.167C59.6185 105.167 60.212 105.412 60.6496 105.85C61.0872 106.288 61.333 106.881 61.333 107.5C61.333 108.119 61.0872 108.712 60.6496 109.15C60.212 109.587 59.6185 109.833 58.9997 109.833ZM72.9997 109.833C72.3808 109.833 71.7873 109.587 71.3498 109.15C70.9122 108.712 70.6663 108.119 70.6663 107.5C70.6663 106.881 70.9122 106.288 71.3498 105.85C71.7873 105.412 72.3808 105.167 72.9997 105.167C73.6185 105.167 74.212 105.412 74.6496 105.85C75.0872 106.288 75.333 106.881 75.333 107.5C75.333 108.119 75.0872 108.712 74.6496 109.15C74.212 109.587 73.6185 109.833 72.9997 109.833Z" fill="#3D3F45"/>
<rect x="102.5" y="67.5" width="59" height="59" rx="11.5" fill="#F7F8FA"/>
<rect x="102.5" y="67.5" width="59" height="59" rx="11.5" stroke="#DCE4E6"/>
<rect x="168.5" y="67.5" width="59" height="59" rx="11.5" fill="#F7F8FA"/>
<rect x="168.5" y="67.5" width="59" height="59" rx="11.5" stroke="#DCE4E6"/>
<rect x="234.5" y="67.5" width="59" height="59" rx="11.5" stroke="#DCE4E6"/>
<path d="M253.5 91.1666L263.352 84.5983C263.544 84.4704 263.77 84.4021 264 84.4021C264.23 84.4021 264.456 84.4704 264.648 84.5983L274.5 91.1666V107.5C274.5 107.809 274.377 108.106 274.158 108.325C273.939 108.544 273.643 108.667 273.333 108.667H254.667C254.357 108.667 254.061 108.544 253.842 108.325C253.623 108.106 253.5 107.809 253.5 107.5V91.1666ZM255.833 92.4149V106.333H272.167V92.4149L264 86.9713L255.833 92.4149ZM259.333 101.667H268.667V104H259.333V101.667ZM259.333 98.1666H268.667V100.5H259.333V98.1666ZM264 95.8333C263.381 95.8333 262.788 95.5874 262.35 95.1499C261.912 94.7123 261.667 94.1188 261.667 93.4999C261.667 92.8811 261.912 92.2876 262.35 91.85C262.788 91.4124 263.381 91.1666 264 91.1666C264.619 91.1666 265.212 91.4124 265.65 91.85C266.087 92.2876 266.333 92.8811 266.333 93.4999C266.333 94.1188 266.087 94.7123 265.65 95.1499C265.212 95.5874 264.619 95.8333 264 95.8333Z" fill="#3D3F45"/>
<rect x="300.5" y="67.5" width="59" height="59" rx="11.5" fill="#F7F8FA"/>
<rect x="300.5" y="67.5" width="59" height="59" rx="11.5" stroke="#DCE4E6"/>
<rect x="366.5" y="67.5" width="59" height="59" rx="11.5" stroke="#DCE4E6"/>
<rect x="-29.5" y="133.5" width="59" height="59" rx="11.5" fill="#F7F8FA"/>
<rect x="-29.5" y="133.5" width="59" height="59" rx="11.5" stroke="#DCE4E6"/>
<rect x="36.5" y="133.5" width="59" height="59" rx="11.5" fill="#F7F8FA"/>
<rect x="36.5" y="133.5" width="59" height="59" rx="11.5" stroke="#DCE4E6"/>
<rect x="102.5" y="133.5" width="59" height="59" rx="11.5" stroke="#DCE4E6"/>
<path d="M139 157.167H142.5C142.809 157.167 143.106 157.29 143.325 157.508C143.543 157.727 143.666 158.024 143.666 158.333V172.333C143.666 172.643 143.543 172.939 143.325 173.158C143.106 173.377 142.809 173.5 142.5 173.5H121.5C121.19 173.5 120.894 173.377 120.675 173.158C120.456 172.939 120.333 172.643 120.333 172.333V153.667C120.333 153.357 120.456 153.061 120.675 152.842C120.894 152.623 121.19 152.5 121.5 152.5H139V157.167ZM122.666 159.5V171.167H141.333V159.5H122.666ZM122.666 154.833V157.167H136.666V154.833H122.666ZM135.5 164.167H139V166.5H135.5V164.167Z" fill="#3D3F45"/>
<g filter="url(#filter0_d_419_30416)">
<rect x="168" y="133" width="60" height="60" rx="12" fill="#2D3242" shape-rendering="crispEdges"/>
<path d="M191.583 151.333H204.417C204.598 151.333 204.776 151.375 204.938 151.456C205.1 151.537 205.241 151.655 205.35 151.8L208.5 156V173.5C208.5 173.809 208.377 174.106 208.158 174.325C207.939 174.544 207.643 174.667 207.333 174.667H188.667C188.357 174.667 188.061 174.544 187.842 174.325C187.623 174.106 187.5 173.809 187.5 173.5V156L190.65 151.8C190.759 151.655 190.9 151.537 191.062 151.456C191.224 151.375 191.402 151.333 191.583 151.333ZM205.583 156L203.833 153.667H192.167L190.417 156H205.583ZM194.5 160.667H192.167V163C192.167 164.547 192.781 166.031 193.875 167.125C194.969 168.219 196.453 168.833 198 168.833C199.547 168.833 201.031 168.219 202.125 167.125C203.219 166.031 203.833 164.547 203.833 163V160.667H201.5V163C201.5 163.928 201.131 164.818 200.475 165.475C199.818 166.131 198.928 166.5 198 166.5C197.072 166.5 196.182 166.131 195.525 165.475C194.869 164.818 194.5 163.928 194.5 163V160.667Z" fill="white"/>
</g>
<rect x="234.5" y="133.5" width="59" height="59" rx="11.5" fill="#F7F8FA"/>
<rect x="234.5" y="133.5" width="59" height="59" rx="11.5" stroke="#DCE4E6"/>
<rect x="-29.5" y="199.5" width="59" height="59" rx="11.5" stroke="#DCE4E6"/>
<path d="M-1.28286 217.45L10.266 219.101L11.9156 230.651L1.19164 241.375C0.97286 241.594 0.676167 241.716 0.36681 241.716C0.0574512 241.716 -0.239242 241.594 -0.458023 241.375L-12.008 229.825C-12.2267 229.606 -12.3496 229.309 -12.3496 229C-12.3496 228.691 -12.2267 228.394 -12.008 228.175L-1.28286 217.45ZM-0.458023 219.926L-9.53352 229L0.36681 238.899L9.44114 229.825L8.20448 221.162L-0.458023 219.926ZM2.01531 227.35C1.57764 226.912 1.33181 226.319 1.33192 225.7C1.33198 225.393 1.39241 225.09 1.50976 224.806C1.62712 224.523 1.7991 224.266 2.01589 224.049C2.23268 223.832 2.49004 223.661 2.77326 223.543C3.05648 223.426 3.36002 223.366 3.66656 223.366C4.28563 223.366 4.8793 223.612 5.31697 224.05C5.75465 224.488 6.00047 225.081 6.00036 225.7C6.00025 226.32 5.75422 226.913 5.31639 227.351C4.87856 227.789 4.2848 228.034 3.66573 228.034C3.04666 228.034 2.45298 227.788 2.01531 227.35Z" fill="#3D3F45"/>
<rect x="36.5" y="199.5" width="191" height="59" rx="11.5" fill="#F7F8FA"/>
<rect x="36.5" y="199.5" width="191" height="59" rx="11.5" stroke="#DCE4E6"/>
<rect x="234.5" y="199.5" width="59" height="59" rx="11.5" stroke="#DCE4E6"/>
<path d="M264 240.667C257.556 240.667 252.333 235.443 252.333 229C252.333 222.556 257.556 217.333 264 217.333C270.443 217.333 275.666 222.556 275.666 229C275.666 235.443 270.443 240.667 264 240.667ZM261.328 237.945C260.177 235.503 259.51 232.862 259.365 230.167H254.739C254.966 231.962 255.709 233.653 256.879 235.034C258.049 236.414 259.594 237.426 261.328 237.945ZM261.701 230.167C261.878 233.012 262.691 235.685 264 238.044C265.344 235.623 266.129 232.931 266.298 230.167H261.701ZM273.261 230.167H268.635C268.489 232.862 267.822 235.503 266.671 237.945C268.405 237.426 269.951 236.414 271.12 235.034C272.29 233.653 273.034 231.962 273.261 230.167ZM254.739 227.833H259.365C259.51 225.138 260.177 222.497 261.328 220.055C259.594 220.574 258.049 221.585 256.879 222.966C255.709 224.347 254.966 226.038 254.739 227.833ZM261.703 227.833H266.297C266.129 225.069 265.344 222.377 264 219.956C262.655 222.377 261.87 225.069 261.701 227.833H261.703ZM266.671 220.055C267.822 222.497 268.489 225.138 268.635 227.833H273.261C273.034 226.038 272.29 224.347 271.12 222.966C269.951 221.585 268.405 220.574 266.671 220.055Z" fill="#3D3F45"/>
<rect x="300.5" y="133.5" width="59" height="125" rx="11.5" fill="#F7F8FA"/>
<rect x="300.5" y="133.5" width="59" height="125" rx="11.5" stroke="#DCE4E6"/>
<rect x="366.5" y="133.5" width="59" height="125" rx="11.5" fill="#F7F8FA"/>
<rect x="366.5" y="133.5" width="59" height="125" rx="11.5" stroke="#DCE4E6"/>
<rect width="375" height="285" fill="url(#paint0_radial_419_30416)"/>
<defs>
<filter id="filter0_d_419_30416" x="148" y="113" width="100" height="100" filterUnits="userSpaceOnUse" color-interpolation-filters="sRGB">
<feFlood flood-opacity="0" result="BackgroundImageFix"/>
<feColorMatrix in="SourceAlpha" type="matrix" values="0 0 0 0 0 0 0 0 0 0 0 0 0 0 0 0 0 0 127 0" result="hardAlpha"/>
<feOffset/>
<feGaussianBlur stdDeviation="10"/>
<feComposite in2="hardAlpha" operator="out"/>
<feColorMatrix type="matrix" values="0 0 0 0 0.176471 0 0 0 0 0.196078 0 0 0 0 0.258824 0 0 0 0.8 0"/>
<feBlend mode="normal" in2="BackgroundImageFix" result="effect1_dropShadow_419_30416"/>
<feBlend mode="normal" in="SourceGraphic" in2="effect1_dropShadow_419_30416" result="shape"/>
</filter>
<radialGradient id="paint0_radial_419_30416" cx="0" cy="0" r="1" gradientUnits="userSpaceOnUse" gradientTransform="translate(187.5 162) rotate(90) scale(188 247.368)">
<stop stop-color="white" stop-opacity="0"/>
<stop offset="1" stop-color="white"/>
</radialGradient>
</defs>
</svg>
