<svg width="25" height="24" viewBox="0 0 25 24" fill="none" xmlns="http://www.w3.org/2000/svg">
  <path d="M12.832 14V16C11.2407 16 9.71461 16.6321 8.58939 17.7574C7.46417 18.8826 6.83203 20.4087 6.83203 22H4.83203C4.83203 19.8783 5.67489 17.8434 7.17518 16.3431C8.67547 14.8429 10.7103 14 12.832 14V14ZM12.832 13C9.51703 13 6.83203 10.315 6.83203 7C6.83203 3.685 9.51703 1 12.832 1C16.147 1 18.832 3.685 18.832 7C18.832 10.315 16.147 13 12.832 13ZM12.832 11C15.042 11 16.832 9.21 16.832 7C16.832 4.79 15.042 3 12.832 3C10.622 3 8.83203 4.79 8.83203 7C8.83203 9.21 10.622 11 12.832 11ZM21.832 17H22.832V22H14.832V17H15.832V16C15.832 15.2044 16.1481 14.4413 16.7107 13.8787C17.2733 13.3161 18.0364 13 18.832 13C19.6277 13 20.3907 13.3161 20.9534 13.8787C21.516 14.4413 21.832 15.2044 21.832 16V17ZM19.832 17V16C19.832 15.7348 19.7267 15.4804 19.5391 15.2929C19.3516 15.1054 19.0972 15 18.832 15C18.5668 15 18.3125 15.1054 18.1249 15.2929C17.9374 15.4804 17.832 15.7348 17.832 16V17H19.832Z" fill="#77797D" />
</svg>
