<svg width="16" height="16" viewBox="0 0 16 16" fill="none" xmlns="http://www.w3.org/2000/svg">
<path d="M14.0002 2C14.177 2 14.3465 2.07024 14.4716 2.19526C14.5966 2.32029 14.6668 2.48986 14.6668 2.66667V13.3333C14.6668 13.5101 14.5966 13.6797 14.4716 13.8047C14.3465 13.9298 14.177 14 14.0002 14H2.00016C1.82335 14 1.65378 13.9298 1.52876 13.8047C1.40373 13.6797 1.3335 13.5101 1.3335 13.3333V2.66667C1.3335 2.48986 1.40373 2.32029 1.52876 2.19526C1.65378 2.07024 1.82335 2 2.00016 2H14.0002ZM6.26616 5.33333H4.93283L2.7995 10.6667H4.2355L4.50216 10H6.6955L6.96216 10.6667H8.39883L6.26616 5.33333ZM12.6668 5.33333H11.3335V6.66667H10.6668C10.1462 6.66617 9.64594 6.86868 9.27229 7.23118C8.89863 7.59368 8.68104 8.0876 8.66576 8.60798C8.65049 9.12836 8.83872 9.63418 9.19047 10.018C9.54222 10.4018 10.0298 10.6333 10.5495 10.6633L10.6668 10.6667H12.6668V5.33333ZM11.3335 8V9.33333H10.6668L10.5888 9.32867C10.4268 9.30939 10.2775 9.23136 10.1691 9.10936C10.0608 8.98735 10.0009 8.82984 10.0009 8.66667C10.0009 8.50349 10.0608 8.34598 10.1691 8.22398C10.2775 8.10197 10.4268 8.02394 10.5888 8.00467L10.6668 8H11.3335ZM5.5995 7.25667L6.16283 8.66667H5.03483L5.5995 7.25667Z" fill="white"/>
</svg>
