<svg width="25" height="24" viewBox="0 0 25 24" fill="none" xmlns="http://www.w3.org/2000/svg">
  <path d="M5.49958 4.54501C6.52631 3.62529 7.73226 2.928 9.04158 2.49701C9.41596 2.96603 9.89124 3.34464 10.4321 3.60468C10.9729 3.86472 11.5655 3.9995 12.1656 3.99901C12.7657 3.9995 13.3582 3.86472 13.8991 3.60468C14.4399 3.34464 14.9152 2.96603 15.2896 2.49701C16.5989 2.928 17.8048 3.62529 18.8316 4.54501C18.6131 5.10346 18.5232 5.70395 18.5685 6.3019C18.6139 6.89985 18.7933 7.47991 19.0936 7.99901C19.3932 8.5191 19.8062 8.96496 20.3018 9.30343C20.7975 9.6419 21.3631 9.86427 21.9566 9.95401C22.2371 11.3029 22.2371 12.6951 21.9566 14.044C20.7966 14.222 19.7266 14.904 19.0936 15.999C18.7932 16.5182 18.6137 17.0985 18.5683 17.6966C18.5229 18.2947 18.6129 18.8954 18.8316 19.454C17.8048 20.3734 16.5988 21.0703 15.2896 21.501C14.9151 21.0322 14.4398 20.6538 13.8989 20.3939C13.3581 20.134 12.7656 19.9994 12.1656 20C11.5655 19.9995 10.9729 20.1343 10.4321 20.3943C9.89124 20.6544 9.41596 21.033 9.04158 21.502C7.73235 21.0713 6.5264 20.3744 5.49958 19.455C5.71823 18.8964 5.80822 18.2958 5.76286 17.6976C5.7175 17.0995 5.53796 16.5192 5.23758 16C4.93787 15.4801 4.52483 15.0344 4.02916 14.6961C3.53349 14.3579 2.96795 14.1356 2.37458 14.046C2.09389 12.6968 2.09389 11.3042 2.37458 9.95501C2.96804 9.86527 3.53364 9.6429 4.02931 9.30443C4.52499 8.96596 4.93798 8.5201 5.23758 8.00001C5.53781 7.48091 5.71726 6.90085 5.76262 6.3029C5.80797 5.70495 5.71807 5.10446 5.49958 4.54601V4.54501ZM13.6656 14.597C14.0095 14.4015 14.3114 14.1398 14.5538 13.8271C14.7962 13.5144 14.9743 13.1569 15.078 12.7751C15.1817 12.3933 15.2088 11.9947 15.1578 11.6024C15.1068 11.21 14.9787 10.8317 14.7809 10.489C14.583 10.1464 14.3194 9.84628 14.0051 9.60595C13.6908 9.36563 13.3321 9.18984 12.9496 9.08871C12.5671 8.98759 12.1684 8.96312 11.7764 9.01672C11.3844 9.07031 11.0069 9.20092 10.6656 9.40101C9.98216 9.80166 9.48495 10.4564 9.28246 11.2223C9.07998 11.9881 9.18864 12.803 9.58475 13.4891C9.98086 14.1752 10.6323 14.6767 11.3968 14.8843C12.1613 15.0918 12.9769 14.9886 13.6656 14.597V14.597Z" fill="#2D3242" />
</svg>