<svg width="22" height="22" viewBox="0 0 22 22" fill="none" xmlns="http://www.w3.org/2000/svg">
<path d="M15.5833 2.75008H19.2499C19.493 2.75008 19.7262 2.84666 19.8981 3.01857C20.07 3.19048 20.1666 3.42363 20.1666 3.66675V18.3334C20.1666 18.5765 20.07 18.8097 19.8981 18.9816C19.7262 19.1535 19.493 19.2501 19.2499 19.2501H2.74992C2.5068 19.2501 2.27365 19.1535 2.10174 18.9816C1.92983 18.8097 1.83325 18.5765 1.83325 18.3334V3.66675C1.83325 3.42363 1.92983 3.19048 2.10174 3.01857C2.27365 2.84666 2.5068 2.75008 2.74992 2.75008H6.41659V0.916748H8.24992V2.75008H13.7499V0.916748H15.5833V2.75008ZM13.7499 4.58341H8.24992V6.41675H6.41659V4.58341H3.66659V8.25008H18.3333V4.58341H15.5833V6.41675H13.7499V4.58341ZM18.3333 10.0834H3.66659V17.4167H18.3333V10.0834Z" fill="#8B8C8F"/>
</svg>
