<svg width="32" height="32" viewBox="0 0 32 32" fill="none" xmlns="http://www.w3.org/2000/svg">
<path d="M22.3134 7.02022L22.4599 7.16667H22.667H28.0003C28.2213 7.16667 28.4333 7.25446 28.5896 7.41074C28.7459 7.56702 28.8337 7.77899 28.8337 8V26.6667C28.8337 26.8877 28.7459 27.0996 28.5896 27.2559C28.4333 27.4122 28.2213 27.5 28.0003 27.5H4.00033C3.77931 27.5 3.56735 27.4122 3.41107 27.2559C3.25479 27.0996 3.16699 26.8877 3.16699 26.6667V8C3.16699 7.77899 3.25479 7.56702 3.41107 7.41074C3.56735 7.25446 3.77931 7.16667 4.00033 7.16667H9.33366H9.54077L9.68721 7.02022L12.2074 4.5H19.7932L22.3134 7.02022ZM16.0003 25.8333C18.2547 25.8333 20.4167 24.9378 22.0107 23.3437C23.6048 21.7497 24.5003 19.5877 24.5003 17.3333C24.5003 15.079 23.6048 12.917 22.0107 11.3229C20.4167 9.72887 18.2547 8.83333 16.0003 8.83333C13.746 8.83333 11.584 9.72887 9.98992 11.3229C8.39586 12.917 7.50033 15.079 7.50033 17.3333C7.50033 19.5877 8.39586 21.7497 9.98992 23.3437C11.584 24.9378 13.746 25.8333 16.0003 25.8333ZM16.0003 22.1667C14.7184 22.1667 13.4891 21.6574 12.5826 20.751C11.6762 19.8446 11.167 18.6152 11.167 17.3333C11.167 16.0515 11.6762 14.8221 12.5826 13.9157C13.4891 13.0092 14.7184 12.5 16.0003 12.5C17.2822 12.5 18.5116 13.0092 19.418 13.9157C20.3244 14.8221 20.8337 16.0515 20.8337 17.3333C20.8337 18.6152 20.3244 19.8446 19.418 20.751C18.5116 21.6574 17.2822 22.1667 16.0003 22.1667Z" fill="#DCE4E6" stroke="#DCE4E6"/>
</svg>
