<svg width="22" height="22" viewBox="0 0 22 22" fill="none" xmlns="http://www.w3.org/2000/svg">
<path d="M15.583 5.50004H20.1663V7.33337H18.333V19.25C18.333 19.4932 18.2364 19.7263 18.0645 19.8982C17.8926 20.0701 17.6595 20.1667 17.4163 20.1667H4.58301C4.33989 20.1667 4.10673 20.0701 3.93483 19.8982C3.76292 19.7263 3.66634 19.4932 3.66634 19.25V7.33337H1.83301V5.50004H6.41634V2.75004C6.41634 2.50693 6.51292 2.27377 6.68483 2.10186C6.85673 1.92995 7.08989 1.83337 7.33301 1.83337H14.6663C14.9095 1.83337 15.1426 1.92995 15.3145 2.10186C15.4864 2.27377 15.583 2.50693 15.583 2.75004V5.50004ZM16.4997 7.33337H5.49967V18.3334H16.4997V7.33337ZM8.24967 10.0834H10.083V15.5834H8.24967V10.0834ZM11.9163 10.0834H13.7497V15.5834H11.9163V10.0834ZM8.24967 3.66671V5.50004H13.7497V3.66671H8.24967Z" fill="#3D3F45"/>
</svg>
