<svg width="22" height="22" viewBox="0 0 22 22" fill="none" xmlns="http://www.w3.org/2000/svg">
  <path d="M18.3333 1.8335C18.8393 1.8335 19.25 2.24416 19.25 2.75016V6.19408L17.4167 8.02741V3.66683H4.58333V18.3335H17.4167V15.8053L19.25 13.972V19.2502C19.25 19.7562 18.8393 20.1668 18.3333 20.1668H3.66667C3.16067 20.1668 2.75 19.7562 2.75 19.2502V2.75016C2.75 2.24416 3.16067 1.8335 3.66667 1.8335H18.3333ZM19.9632 8.07416L21.2593 9.37033L14.1295 16.5002L12.8315 16.4983L12.8333 15.204L19.9632 8.07416ZM11.9167 11.0002V12.8335H7.33333V11.0002H11.9167ZM14.6667 7.3335V9.16683H7.33333V7.3335H14.6667Z" />
</svg>