<svg width="16" height="16" viewBox="0 0 16 16" fill="none" xmlns="http://www.w3.org/2000/svg">
<path d="M8.66732 14V15.3333H7.33398V14H2.00065C1.82384 14 1.65427 13.9298 1.52925 13.8047C1.40422 13.6797 1.33398 13.5101 1.33398 13.3333V2.66667C1.33398 2.48986 1.40422 2.32029 1.52925 2.19526C1.65427 2.07024 1.82384 2 2.00065 2H6.00065C6.37904 1.99955 6.75317 2.07984 7.09806 2.2355C7.44296 2.39116 7.75067 2.61861 8.00065 2.90267C8.25064 2.61861 8.55835 2.39116 8.90324 2.2355C9.24813 2.07984 9.62226 1.99955 10.0007 2H14.0007C14.1775 2 14.347 2.07024 14.4721 2.19526C14.5971 2.32029 14.6673 2.48986 14.6673 2.66667V13.3333C14.6673 13.5101 14.5971 13.6797 14.4721 13.8047C14.347 13.9298 14.1775 14 14.0007 14H8.66732ZM13.334 12.6667V3.33334H10.0007C9.64703 3.33334 9.30789 3.47381 9.05784 3.72386C8.80779 3.97391 8.66732 4.31305 8.66732 4.66667V12.6667H13.334ZM7.33398 12.6667V4.66667C7.33398 4.31305 7.19351 3.97391 6.94346 3.72386C6.69341 3.47381 6.35427 3.33334 6.00065 3.33334H2.66732V12.6667H7.33398Z" fill="white"/>
</svg>
