<svg width="16" height="16" viewBox="0 0 16 16" fill="none" xmlns="http://www.w3.org/2000/svg">
<path d="M13.3333 1.33331C13.7013 1.33331 14 1.63198 14 1.99998V14C14 14.368 13.7013 14.6666 13.3333 14.6666H4C3.632 14.6666 3.33333 14.368 3.33333 14V12.6666H2V11.3333H3.33333V9.99998H2V8.66665H3.33333V7.33331H2V5.99998H3.33333V4.66665H2V3.33331H3.33333V1.99998C3.33333 1.63198 3.632 1.33331 4 1.33331H13.3333ZM12.6667 2.66665H4.66667V13.3333H12.6667V2.66665ZM9.33333 5.33331V7.33331H11.3333V8.66665H9.33267L9.33333 10.6666H8L7.99933 8.66665H6V7.33331H8V5.33331H9.33333Z" fill="white"/>
</svg>
