<svg width="22" height="22" viewBox="0 0 22 22" fill="none" xmlns="http://www.w3.org/2000/svg">
<path d="M11.0002 20.1663C5.93741 20.1663 1.8335 16.0624 1.8335 10.9997C1.8335 5.93692 5.93741 1.83301 11.0002 1.83301C16.0629 1.83301 20.1668 5.93692 20.1668 10.9997C20.1668 16.0624 16.0629 20.1663 11.0002 20.1663ZM11.0002 18.333C12.9451 18.333 14.8103 17.5604 16.1856 16.1851C17.5609 14.8099 18.3335 12.9446 18.3335 10.9997C18.3335 9.05475 17.5609 7.18949 16.1856 5.81422C14.8103 4.43896 12.9451 3.66634 11.0002 3.66634C9.05524 3.66634 7.18998 4.43896 5.81471 5.81422C4.43945 7.18949 3.66683 9.05475 3.66683 10.9997C3.66683 12.9446 4.43945 14.8099 5.81471 16.1851C7.18998 17.5604 9.05524 18.333 11.0002 18.333V18.333ZM10.0835 6.41634H11.9168V8.24967H10.0835V6.41634ZM10.0835 10.083H11.9168V15.583H10.0835V10.083Z" fill="#575A65"/>
</svg>
