<svg width="22" height="22" viewBox="0 0 22 22" fill="none" xmlns="http://www.w3.org/2000/svg">
  <path d="M10.9999 20.1663C5.93717 20.1663 1.83325 16.0624 1.83325 10.9997C1.83325 5.93692 5.93717 1.83301 10.9999 1.83301C16.0627 1.83301 20.1666 5.93692 20.1666 10.9997C20.1666 16.0624 16.0627 20.1663 10.9999 20.1663ZM10.9999 18.333C12.9448 18.333 14.8101 17.5604 16.1854 16.1851C17.5606 14.8099 18.3333 12.9446 18.3333 10.9997C18.3333 9.05475 17.5606 7.18949 16.1854 5.81422C14.8101 4.43896 12.9448 3.66634 10.9999 3.66634C9.055 3.66634 7.18974 4.43896 5.81447 5.81422C4.4392 7.18949 3.66659 9.05475 3.66659 10.9997C3.66659 12.9446 4.4392 14.8099 5.81447 16.1851C7.18974 17.5604 9.055 18.333 10.9999 18.333ZM10.0833 13.7497H11.9166V15.583H10.0833V13.7497ZM11.9166 12.2418V12.833H10.0833V11.458C10.0833 11.2149 10.1798 10.9817 10.3517 10.8098C10.5236 10.6379 10.7568 10.5413 10.9999 10.5413C11.2603 10.5413 11.5154 10.4674 11.7354 10.3281C11.9554 10.1888 12.1313 9.98984 12.2427 9.75446C12.3541 9.51908 12.3963 9.2569 12.3645 8.99845C12.3327 8.73999 12.2282 8.49588 12.0631 8.29451C11.898 8.09314 11.6791 7.9428 11.4319 7.86098C11.1847 7.77916 10.9193 7.76922 10.6666 7.83232C10.414 7.89542 10.1845 8.02897 10.0048 8.21742C9.82504 8.40588 9.70254 8.64149 9.6515 8.89684L7.853 8.53659C7.9645 7.97934 8.22197 7.46168 8.5991 7.03654C8.97622 6.61141 9.45948 6.29404 9.99946 6.11688C10.5394 5.93973 11.1168 5.90914 11.6725 6.02824C12.2281 6.14734 12.7422 6.41186 13.1622 6.79476C13.5821 7.17767 13.8928 7.66521 14.0626 8.20757C14.2324 8.74992 14.2551 9.32762 14.1284 9.88162C14.0017 10.4356 13.7302 10.946 13.3416 11.3607C12.953 11.7754 12.4612 12.0794 11.9166 12.2418Z" fill="#575A65" />
</svg>