<svg width="16" height="16" viewBox="0 0 16 16" fill="none" xmlns="http://www.w3.org/2000/svg">
<path d="M10.2447 2.29199L12.3853 5.99999H14.6673V7.33333H13.8893L13.3847 13.3887C13.3708 13.5553 13.2948 13.7106 13.1718 13.8238C13.0489 13.937 12.8878 13.9999 12.7207 14H3.28065C3.11348 13.9999 2.95245 13.937 2.82947 13.8238C2.70648 13.7106 2.63053 13.5553 2.61665 13.3887L2.11132 7.33333H1.33398V5.99999H3.61532L5.75665 2.29199L6.91132 2.95866L5.15532 5.99999H10.8453L9.08998 2.95866L10.2447 2.29199ZM12.5513 7.33333H3.44932L3.89398 12.6667H12.1067L12.5513 7.33333ZM8.66732 8.66666V11.3333H7.33398V8.66666H8.66732ZM6.00065 8.66666V11.3333H4.66732V8.66666H6.00065ZM11.334 8.66666V11.3333H10.0007V8.66666H11.334Z" fill="white"/>
</svg>
