<svg width="60" height="60" viewBox="0 0 60 60" fill="none" xmlns="http://www.w3.org/2000/svg">
<g clip-path="url(#clip0_1041_12185)">
<rect width="60" height="60" rx="8" fill="#ECECEC"/>
<rect x="8.56" y="8.56" width="62.88" height="119.88" rx="8.4" fill="white" stroke="#C5C5C7" stroke-width="1.12"/>
<rect x="13" y="25" width="54" height="15" rx="4" fill="#ECECEC"/>
<rect x="13" y="43" width="23" height="4" rx="2" fill="#ECECEC"/>
<rect x="13" y="50" width="54" height="4" rx="2" fill="#ECECEC"/>
<path d="M14.1253 21H13.244L15.7928 14.0587H16.6605L19.2092 21H18.328L16.2538 15.1568H16.1995L14.1253 21ZM14.4506 18.2885H18.0026V19.0342H14.4506V18.2885ZM21.714 21.122C21.3841 21.122 21.0847 21.0599 20.8158 20.9356C20.5469 20.8091 20.3334 20.6272 20.1752 20.3899C20.017 20.1504 19.938 19.8612 19.938 19.5223C19.938 19.224 19.9967 18.9822 20.1142 18.7969C20.2317 18.6094 20.3887 18.4625 20.5853 18.3563C20.7819 18.2501 20.9988 18.171 21.2361 18.1191C21.4756 18.0648 21.7162 18.0219 21.958 17.9903C22.2743 17.9496 22.5308 17.9191 22.7274 17.8988C22.9262 17.8762 23.0708 17.8389 23.1612 17.7869C23.2538 17.7349 23.3002 17.6446 23.3002 17.5158V17.4887C23.3002 17.1542 23.2087 16.8944 23.0256 16.7091C22.8449 16.5238 22.5703 16.4312 22.202 16.4312C21.8202 16.4312 21.5208 16.5148 21.3039 16.682C21.0869 16.8492 20.9344 17.0277 20.8463 17.2175L20.0871 16.9464C20.2227 16.63 20.4034 16.3837 20.6294 16.2075C20.8576 16.029 21.1061 15.9047 21.375 15.8347C21.6462 15.7624 21.9128 15.7262 22.1749 15.7262C22.3421 15.7262 22.5342 15.7465 22.7511 15.7872C22.9703 15.8256 23.1815 15.9058 23.3849 16.0279C23.5905 16.1499 23.7611 16.334 23.8967 16.5803C24.0323 16.8266 24.1 17.1565 24.1 17.57V21H23.3002V20.295H23.2595C23.2053 20.408 23.1149 20.5289 22.9883 20.6577C22.8618 20.7865 22.6935 20.8961 22.4833 20.9864C22.2732 21.0768 22.0167 21.122 21.714 21.122ZM21.836 20.4035C22.1523 20.4035 22.4189 20.3413 22.6359 20.2171C22.855 20.0928 23.02 19.9324 23.1307 19.7358C23.2437 19.5392 23.3002 19.3325 23.3002 19.1155V18.3834C23.2663 18.4241 23.1917 18.4614 23.0765 18.4953C22.9635 18.5269 22.8324 18.5552 22.6833 18.58C22.5364 18.6026 22.393 18.623 22.2529 18.641C22.115 18.6568 22.0032 18.6704 21.9173 18.6817C21.7094 18.7088 21.5151 18.7529 21.3344 18.8139C21.1559 18.8726 21.0112 18.9619 20.9005 19.0816C20.7921 19.1991 20.7378 19.3596 20.7378 19.5629C20.7378 19.8408 20.8406 20.051 21.0463 20.1933C21.2541 20.3334 21.5174 20.4035 21.836 20.4035Z" fill="#3D3F45"/>
</g>
<rect x="0.5" y="0.5" width="59" height="59" rx="7.5" stroke="#C5C5C7"/>
<defs>
<clipPath id="clip0_1041_12185">
<rect width="60" height="60" rx="8" fill="white"/>
</clipPath>
</defs>
</svg>
