<svg width="24" height="24" viewBox="0 0 24 24" fill="none" xmlns="http://www.w3.org/2000/svg">
<path d="M2.5 7.28289L2.5001 7.28282L11.7471 1.73882L11.7472 1.73874C11.825 1.69211 11.9139 1.66748 12.0045 1.66748C12.0951 1.66748 12.184 1.69209 12.2617 1.73869C12.2617 1.73871 12.2617 1.73872 12.2618 1.73874L21.4997 7.28369L21.5 7.28389V7.28399V20C21.5 20.1326 21.4473 20.2598 21.3536 20.3535C21.2598 20.4473 21.1326 20.5 21 20.5H3C2.86739 20.5 2.74021 20.4473 2.64645 20.3535C2.55268 20.2598 2.5 20.1326 2.5 20V7.28299L2.5 7.28289ZM18.7242 7.91699L18.3971 7.53855L18.0188 7.86591L12.0579 13.0245L5.97059 7.85682L5.58945 7.53326L5.26586 7.91437L3.97186 9.43837L3.64824 9.81951L4.02938 10.1431L11.7494 16.6981L12.0761 16.9755L12.4002 16.6951L19.9812 10.1351L20.3591 9.80806L20.0322 9.42999L18.7242 7.91699Z" fill="white" stroke="white"/>
</svg>
