<svg width="25" height="25" viewBox="0 0 25 25" fill="none" xmlns="http://www.w3.org/2000/svg">
<path d="M6.955 19.5L2.5 23V4.5C2.5 4.23478 2.60536 3.98043 2.79289 3.79289C2.98043 3.60536 3.23478 3.5 3.5 3.5H21.5C21.7652 3.5 22.0196 3.60536 22.2071 3.79289C22.3946 3.98043 22.5 4.23478 22.5 4.5V18.5C22.5 18.7652 22.3946 19.0196 22.2071 19.2071C22.0196 19.3946 21.7652 19.5 21.5 19.5H6.955ZM6.263 17.5H20.5V5.5H4.5V18.885L6.263 17.5ZM11.5 10.5H13.5V12.5H11.5V10.5ZM7.5 10.5H9.5V12.5H7.5V10.5ZM15.5 10.5H17.5V12.5H15.5V10.5Z" fill="#3D3F45"/>
</svg>
