<svg width="16" height="16" viewBox="0 0 16 16" fill="none" xmlns="http://www.w3.org/2000/svg">
<path d="M12.6663 14.6667H3.33301C2.80257 14.6667 2.29387 14.456 1.91879 14.0809C1.54372 13.7058 1.33301 13.1971 1.33301 12.6667V2C1.33301 1.82319 1.40325 1.65362 1.52827 1.5286C1.65329 1.40357 1.82286 1.33333 1.99967 1.33333H11.333C11.5098 1.33333 11.6794 1.40357 11.8044 1.5286C11.9294 1.65362 11.9997 1.82319 11.9997 2V6.66667H14.6663V12.6667C14.6663 13.1971 14.4556 13.7058 14.0806 14.0809C13.7055 14.456 13.1968 14.6667 12.6663 14.6667ZM11.9997 8V12.6667C11.9997 12.8435 12.0699 13.013 12.1949 13.1381C12.32 13.2631 12.4895 13.3333 12.6663 13.3333C12.8432 13.3333 13.0127 13.2631 13.1377 13.1381C13.2628 13.013 13.333 12.8435 13.333 12.6667V8H11.9997ZM3.33301 4V8H7.33301V4H3.33301ZM3.33301 8.66667V10H9.99967V8.66667H3.33301ZM3.33301 10.6667V12H9.99967V10.6667H3.33301ZM4.66634 5.33333H5.99967V6.66667H4.66634V5.33333Z" fill="white"/>
</svg>
