<svg width="22" height="22" viewBox="0 0 22 22" fill="none" xmlns="http://www.w3.org/2000/svg">
  <path d="M2.75016 2.75H19.2502C19.4933 2.75 19.7264 2.84658 19.8983 3.01849C20.0703 3.19039 20.1668 3.42355 20.1668 3.66667V18.3333C20.1668 18.5764 20.0703 18.8096 19.8983 18.9815C19.7264 19.1534 19.4933 19.25 19.2502 19.25H2.75016C2.50705 19.25 2.27389 19.1534 2.10198 18.9815C1.93007 18.8096 1.8335 18.5764 1.8335 18.3333V3.66667C1.8335 3.42355 1.93007 3.19039 2.10198 3.01849C2.27389 2.84658 2.50705 2.75 2.75016 2.75ZM18.3335 10.0833H3.66683V17.4167H18.3335V10.0833ZM18.3335 8.25V4.58333H3.66683V8.25H18.3335ZM12.8335 13.75H16.5002V15.5833H12.8335V13.75Z" />
</svg>