<svg width="22" height="22" viewBox="0 0 22 22" fill="none" xmlns="http://www.w3.org/2000/svg">
  <path d="M11.0002 1.8335C16.0629 1.8335 20.1668 5.93741 20.1668 11.0002C20.1668 16.0629 16.0629 20.1668 11.0002 20.1668C5.93741 20.1668 1.8335 16.0629 1.8335 11.0002H3.66683C3.66683 15.05 6.95033 18.3335 11.0002 18.3335C15.05 18.3335 18.3335 15.05 18.3335 11.0002C18.3335 6.95033 15.05 3.66683 11.0002 3.66683C8.47933 3.66683 6.2555 4.93825 4.93641 6.87516H7.3335V8.7085H1.8335V3.2085H3.66683V5.50016C5.33883 3.27266 8.00175 1.8335 11.0002 1.8335ZM11.9168 6.41683V10.6197L14.8896 13.5925L13.5925 14.8896L10.0835 11.3787V6.41683H11.9168Z" />
</svg>