<svg width="22" height="22" viewBox="0 0 22 22" fill="none" xmlns="http://www.w3.org/2000/svg">
  <path d="M10.084 1.8335C14.638 1.8335 18.334 5.5295 18.334 10.0835C18.334 14.6375 14.638 18.3335 10.084 18.3335C5.52998 18.3335 1.83398 14.6375 1.83398 10.0835C1.83398 5.5295 5.52998 1.8335 10.084 1.8335ZM10.084 16.5002C13.6287 16.5002 16.5006 13.6282 16.5006 10.0835C16.5006 6.53783 13.6287 3.66683 10.084 3.66683C6.53832 3.66683 3.66732 6.53783 3.66732 10.0835C3.66732 13.6282 6.53832 16.5002 10.084 16.5002ZM17.8619 16.5652L20.4551 19.1576L19.1581 20.4547L16.5657 17.8614L17.8619 16.5652V16.5652Z" fill="#575A65" />
</svg>