<svg width="16" height="16" viewBox="0 0 16 16" fill="none" xmlns="http://www.w3.org/2000/svg">
<path d="M7.33333 1.33333L12.1987 2.85333C12.3344 2.89569 12.453 2.98032 12.5372 3.09485C12.6214 3.20939 12.6667 3.34784 12.6667 3.49V4.66666H14C14.1768 4.66666 14.3464 4.7369 14.4714 4.86192C14.5964 4.98695 14.6667 5.15652 14.6667 5.33333V6.66666H6V5.33333C6 5.15652 6.07024 4.98695 6.19526 4.86192C6.32029 4.7369 6.48986 4.66666 6.66667 4.66666H11.3333V3.97999L7.33333 2.72933L3.33333 3.97999V8.91599C3.33324 9.32415 3.42683 9.72687 3.60691 10.0932C3.78699 10.4594 4.04874 10.7795 4.372 11.0287L4.498 11.1193L7.33333 13.0533L9.85467 11.3333H6.66667C6.48986 11.3333 6.32029 11.2631 6.19526 11.1381C6.07024 11.013 6 10.8435 6 10.6667V8H14.6667V10.6667C14.6667 10.8435 14.5964 11.013 14.4714 11.1381C14.3464 11.2631 14.1768 11.3333 14 11.3333L11.8533 11.334C11.5953 11.674 11.282 11.974 10.92 12.2207L7.33333 14.6667L3.74667 12.2213C3.20835 11.8543 2.76783 11.3613 2.46343 10.7853C2.15902 10.2092 1.99993 9.56753 2 8.91599V3.49C2.00008 3.34796 2.04552 3.20966 2.12971 3.09525C2.21389 2.98085 2.33241 2.89632 2.468 2.854L7.33333 1.33333Z" fill="white"/>
</svg>
