<svg width="16" height="16" viewBox="0 0 16 16" fill="none" xmlns="http://www.w3.org/2000/svg">
<path d="M9.33268 9.50135V10.8947C8.7293 10.6814 8.08353 10.6159 7.44962 10.7039C6.8157 10.7918 6.21215 11.0306 5.68964 11.4002C5.16712 11.7697 4.74091 12.2592 4.44679 12.8276C4.15267 13.396 3.99923 14.0267 3.99935 14.6667L2.66602 14.666C2.66581 13.8519 2.85196 13.0486 3.21021 12.3176C3.56847 11.5866 4.08931 10.9473 4.73283 10.4487C5.37635 9.95011 6.12547 9.60544 6.92278 9.44112C7.7201 9.27679 8.54446 9.29717 9.33268 9.50069V9.50135ZM7.99935 8.66669C5.78935 8.66669 3.99935 6.87669 3.99935 4.66669C3.99935 2.45669 5.78935 0.666687 7.99935 0.666687C10.2093 0.666687 11.9993 2.45669 11.9993 4.66669C11.9993 6.87669 10.2093 8.66669 7.99935 8.66669ZM7.99935 7.33335C9.47268 7.33335 10.666 6.14002 10.666 4.66669C10.666 3.19335 9.47268 2.00002 7.99935 2.00002C6.52602 2.00002 5.33268 3.19335 5.33268 4.66669C5.33268 6.14002 6.52602 7.33335 7.99935 7.33335ZM11.8613 13.276L14.218 10.9194L15.1613 11.862L11.8613 15.162L9.50401 12.8047L10.4473 11.862L11.8607 13.276H11.8613Z" fill="white"/>
</svg>
