<svg width="25" height="24" viewBox="0 0 25 24" fill="none" xmlns="http://www.w3.org/2000/svg">
  <path d="M3.50534 17C3.08261 16.269 2.75401 15.4875 2.52734 14.674C3.02065 14.4231 3.43494 14.0406 3.72437 13.5689C4.01381 13.0972 4.16711 12.5546 4.16732 12.0011C4.16752 11.4477 4.01463 10.905 3.72555 10.433C3.43646 9.96106 3.02246 9.57828 2.52934 9.32701C2.98138 7.69249 3.84207 6.19996 5.03034 4.99001C5.49444 5.29173 6.03296 5.45917 6.58632 5.47379C7.13968 5.48841 7.6863 5.34964 8.16567 5.07284C8.64505 4.79604 9.0385 4.392 9.30247 3.90545C9.56644 3.41889 9.69065 2.86878 9.66134 2.31601C11.3035 1.89163 13.0266 1.89232 14.6683 2.31801C14.6393 2.87077 14.7637 3.4208 15.0279 3.90721C15.2921 4.39363 15.6857 4.79748 16.1652 5.07407C16.6446 5.35065 17.1913 5.48919 17.7446 5.47436C18.2979 5.45952 18.8364 5.29189 19.3003 4.99001C19.8793 5.58001 20.3933 6.25101 20.8253 7.00001C21.2583 7.74901 21.5823 8.53001 21.8033 9.32601C21.31 9.57691 20.8958 9.95938 20.6063 10.4311C20.3169 10.9028 20.1636 11.4454 20.1634 11.9989C20.1632 12.5523 20.3161 13.0951 20.6051 13.567C20.8942 14.039 21.3082 14.4217 21.8013 14.673C21.3493 16.3075 20.4886 17.8001 19.3003 19.01C18.8363 18.7083 18.2977 18.5408 17.7444 18.5262C17.191 18.5116 16.6444 18.6504 16.165 18.9272C15.6856 19.204 15.2922 19.608 15.0282 20.0946C14.7642 20.5811 14.64 21.1312 14.6693 21.684C13.0272 22.1084 11.3041 22.1077 9.66234 21.682C9.69139 21.1292 9.56694 20.5792 9.30276 20.0928C9.03859 19.6064 8.64499 19.2025 8.16552 18.9259C7.68604 18.6494 7.1394 18.5108 6.58607 18.5257C6.03274 18.5405 5.4943 18.7081 5.03034 19.01C4.43933 18.407 3.92694 17.7316 3.50534 17ZM9.16534 17.196C10.231 17.8106 11.0322 18.797 11.4153 19.966C11.9143 20.013 12.4153 20.014 12.9143 19.967C13.2977 18.7979 14.0993 17.8114 15.1653 17.197C16.2306 16.5807 17.4859 16.3795 18.6903 16.632C18.9803 16.224 19.2303 15.789 19.4383 15.334C18.6178 14.4174 18.1645 13.2302 18.1653 12C18.1653 10.74 18.6353 9.56301 19.4383 8.66601C19.2289 8.21115 18.9778 7.77664 18.6883 7.36801C17.4846 7.62032 16.2301 7.41948 15.1653 6.80401C14.0997 6.18938 13.2985 5.20299 12.9153 4.03401C12.4163 3.98701 11.9153 3.98601 11.4163 4.03301C11.0329 5.20215 10.2313 6.18857 9.16534 6.80301C8.10013 7.41932 6.84482 7.62053 5.64034 7.36801C5.35091 7.77629 5.10048 8.21087 4.89234 8.66601C5.71291 9.58257 6.16623 10.7698 6.16534 12C6.16534 13.26 5.69534 14.437 4.89234 15.334C5.10181 15.7889 5.35288 16.2234 5.64234 16.632C6.84606 16.3797 8.10055 16.5805 9.16534 17.196ZM12.1653 15C11.3697 15 10.6066 14.6839 10.044 14.1213C9.48141 13.5587 9.16534 12.7957 9.16534 12C9.16534 11.2044 9.48141 10.4413 10.044 9.87869C10.6066 9.31608 11.3697 9.00001 12.1653 9.00001C12.961 9.00001 13.7241 9.31608 14.2867 9.87869C14.8493 10.4413 15.1653 11.2044 15.1653 12C15.1653 12.7957 14.8493 13.5587 14.2867 14.1213C13.7241 14.6839 12.961 15 12.1653 15ZM12.1653 13C12.4306 13 12.6849 12.8946 12.8724 12.7071C13.06 12.5196 13.1653 12.2652 13.1653 12C13.1653 11.7348 13.06 11.4804 12.8724 11.2929C12.6849 11.1054 12.4306 11 12.1653 11C11.9001 11 11.6458 11.1054 11.4582 11.2929C11.2707 11.4804 11.1653 11.7348 11.1653 12C11.1653 12.2652 11.2707 12.5196 11.4582 12.7071C11.6458 12.8946 11.9001 13 12.1653 13Z" fill="#77797D" />
</svg>