<svg width="16" height="16" viewBox="0 0 16 16" fill="none" xmlns="http://www.w3.org/2000/svg">
<path d="M8.00033 0.666656L14.3337 4.33332V11.6667L8.00033 15.3333L1.66699 11.6667V4.33332L8.00033 0.666656ZM8.00033 9.99999C8.53076 9.99999 9.03947 9.78928 9.41454 9.4142C9.78961 9.03913 10.0003 8.53042 10.0003 7.99999C10.0003 7.46956 9.78961 6.96085 9.41454 6.58578C9.03947 6.2107 8.53076 5.99999 8.00033 5.99999C7.46989 5.99999 6.96118 6.2107 6.58611 6.58578C6.21104 6.96085 6.00033 7.46956 6.00033 7.99999C6.00033 8.53042 6.21104 9.03913 6.58611 9.4142C6.96118 9.78928 7.46989 9.99999 8.00033 9.99999Z" fill="white"/>
</svg>
