<svg width="22" height="22" viewBox="0 0 22 22" fill="none" xmlns="http://www.w3.org/2000/svg">
  <path d="M8.21775 16.5002C8.10878 17.2649 7.72753 17.9647 7.14404 18.4709C6.56055 18.9772 5.814 19.2559 5.0415 19.2559C4.26901 19.2559 3.52246 18.9772 2.93897 18.4709C2.35547 17.9647 1.97423 17.2649 1.86525 16.5002H0.916504V5.50016C0.916504 5.25705 1.01308 5.02389 1.18499 4.85198C1.3569 4.68007 1.59006 4.5835 1.83317 4.5835H14.6665C14.9096 4.5835 15.1428 4.68007 15.3147 4.85198C15.4866 5.02389 15.5832 5.25705 15.5832 5.50016V7.3335H18.3332L21.0832 11.0515V16.5002H19.2178C19.1088 17.2649 18.7275 17.9647 18.144 18.4709C17.5606 18.9772 16.814 19.2559 16.0415 19.2559C15.269 19.2559 14.5225 18.9772 13.939 18.4709C13.3555 17.9647 12.9742 17.2649 12.8653 16.5002H8.21775ZM13.7498 6.41683H2.74984V13.796C3.11152 13.4268 3.55706 13.1504 4.04853 12.9904C4.54 12.8303 5.06286 12.7914 5.5726 12.8769C6.08234 12.9625 6.56388 13.1699 6.97623 13.4815C7.38858 13.7931 7.71953 14.1998 7.94092 14.6668H13.1421C13.2961 14.3432 13.5023 14.049 13.7498 13.796V6.41683ZM15.5832 11.9168H19.2498V11.6556L17.4092 9.16683H15.5832V11.9168ZM16.0415 17.4168C16.4063 17.4168 16.7562 17.2719 17.0141 17.014C17.2721 16.756 17.417 16.4062 17.417 16.0414C17.417 15.6766 17.2721 15.3267 17.0141 15.0688C16.7562 14.8108 16.4063 14.6659 16.0415 14.6659C15.6767 14.6659 15.3269 14.8108 15.0689 15.0688C14.811 15.3267 14.666 15.6766 14.666 16.0414C14.666 16.4062 14.811 16.756 15.0689 17.014C15.3269 17.2719 15.6767 17.4168 16.0415 17.4168ZM6.4165 16.0418C6.4165 15.8613 6.38094 15.6825 6.31184 15.5156C6.24274 15.3488 6.14146 15.1972 6.01378 15.0696C5.8861 14.9419 5.73452 14.8406 5.56769 14.7715C5.40087 14.7024 5.22207 14.6668 5.0415 14.6668C4.86094 14.6668 4.68214 14.7024 4.51531 14.7715C4.34849 14.8406 4.19691 14.9419 4.06923 15.0696C3.94155 15.1972 3.84027 15.3488 3.77117 15.5156C3.70207 15.6825 3.6665 15.8613 3.6665 16.0418C3.6665 16.4065 3.81137 16.7562 4.06923 17.0141C4.32709 17.272 4.67683 17.4168 5.0415 17.4168C5.40618 17.4168 5.75591 17.272 6.01378 17.0141C6.27164 16.7562 6.4165 16.4065 6.4165 16.0418Z" fill="#3D3F45" />
</svg>