<svg width="16" height="16" viewBox="0 0 16 16" fill="none" xmlns="http://www.w3.org/2000/svg">
<path d="M2.66688 4.27599L0.504883 2.11466L1.44822 1.17133L3.60955 3.33333H13.7709C13.8748 3.33332 13.9773 3.3576 14.0701 3.40424C14.163 3.45087 14.2437 3.51857 14.3057 3.60192C14.3678 3.68528 14.4095 3.78198 14.4275 3.88432C14.4455 3.98665 14.4394 4.09179 14.4095 4.19133L12.8096 9.52466C12.7684 9.66205 12.684 9.7825 12.569 9.86813C12.4539 9.95376 12.3143 10 12.1709 9.99999H4.00022V11.3333H11.3335V12.6667H3.33355C3.15674 12.6667 2.98717 12.5964 2.86215 12.4714C2.73712 12.3464 2.66688 12.1768 2.66688 12V4.27599ZM3.66688 15.3333C3.40167 15.3333 3.14731 15.228 2.95978 15.0404C2.77224 14.8529 2.66688 14.5985 2.66688 14.3333C2.66688 14.0681 2.77224 13.8138 2.95978 13.6262C3.14731 13.4387 3.40167 13.3333 3.66688 13.3333C3.9321 13.3333 4.18645 13.4387 4.37399 13.6262C4.56153 13.8138 4.66688 14.0681 4.66688 14.3333C4.66688 14.5985 4.56153 14.8529 4.37399 15.0404C4.18645 15.228 3.9321 15.3333 3.66688 15.3333ZM11.6669 15.3333C11.4017 15.3333 11.1473 15.228 10.9598 15.0404C10.7722 14.8529 10.6669 14.5985 10.6669 14.3333C10.6669 14.0681 10.7722 13.8138 10.9598 13.6262C11.1473 13.4387 11.4017 13.3333 11.6669 13.3333C11.9321 13.3333 12.1865 13.4387 12.374 13.6262C12.5615 13.8138 12.6669 14.0681 12.6669 14.3333C12.6669 14.5985 12.5615 14.8529 12.374 15.0404C12.1865 15.228 11.9321 15.3333 11.6669 15.3333Z" fill="white"/>
</svg>
