<svg width="24" height="24" viewBox="0 0 24 24" fill="none" xmlns="http://www.w3.org/2000/svg">
<path d="M18.5 6.5H19.5L18.9 5.7L17.4 3.7L17.25 3.5H17H7H6.75L6.6 3.7L5.1 5.7L4.5 6.5H5.5H18.5ZM9.5 10V9.5H9H7H6.5V10V12C6.5 13.4587 7.07946 14.8576 8.11091 15.8891C9.14236 16.9205 10.5413 17.5 12 17.5C13.4587 17.5 14.8576 16.9205 15.8891 15.8891C16.9205 14.8576 17.5 13.4587 17.5 12V10V9.5H17H15H14.5V10V12C14.5 12.663 14.2366 13.2989 13.7678 13.7678C13.2989 14.2366 12.663 14.5 12 14.5C11.337 14.5 10.7011 14.2366 10.2322 13.7678C9.76339 13.2989 9.5 12.663 9.5 12V10ZM6.5 2.5H17.5C17.5776 2.5 17.6542 2.51807 17.7236 2.55279C17.793 2.5875 17.8534 2.6379 17.9 2.7L20.5 6.16667V21C20.5 21.1326 20.4473 21.2598 20.3536 21.3536C20.2598 21.4473 20.1326 21.5 20 21.5H4C3.86739 21.5 3.74021 21.4473 3.64645 21.3536C3.55268 21.2598 3.5 21.1326 3.5 21V6.16667L6.1 2.7C6.14657 2.6379 6.20697 2.5875 6.27639 2.55279C6.34582 2.51807 6.42238 2.5 6.5 2.5Z" fill="white" stroke="white"/>
</svg>
