<svg width="60" height="60" viewBox="0 0 60 60" fill="none" xmlns="http://www.w3.org/2000/svg">
<rect width="60" height="60" rx="20" fill="#2D3242"/>
<path d="M18.0013 17.5H42.0013C42.3549 17.5 42.6941 17.6405 42.9441 17.8905C43.1942 18.1406 43.3346 18.4797 43.3346 18.8333V40.1667C43.3346 40.5203 43.1942 40.8594 42.9441 41.1095C42.6941 41.3595 42.3549 41.5 42.0013 41.5H18.0013C17.6477 41.5 17.3085 41.3595 17.0585 41.1095C16.8084 40.8594 16.668 40.5203 16.668 40.1667V18.8333C16.668 18.4797 16.8084 18.1406 17.0585 17.8905C17.3085 17.6405 17.6477 17.5 18.0013 17.5ZM40.668 28.1667H19.3346V38.8333H40.668V28.1667ZM40.668 25.5V20.1667H19.3346V25.5H40.668ZM32.668 33.5H38.0013V36.1667H32.668V33.5Z" fill="white"/>
</svg>
