<svg width="26" height="26" viewBox="0 0 26 26" fill="none" xmlns="http://www.w3.org/2000/svg">
<path d="M12.9964 23.1059C7.41281 23.1059 2.88672 18.5798 2.88672 12.9962C2.88672 7.41269 7.41281 2.8866 12.9964 2.8866C18.5799 2.8866 23.106 7.41269 23.106 12.9962C23.106 18.5798 18.5799 23.1059 12.9964 23.1059ZM12.9964 21.084C15.1414 21.084 17.1985 20.2319 18.7153 18.7151C20.232 17.1984 21.0841 15.1412 21.0841 12.9962C21.0841 10.8513 20.232 8.79411 18.7153 7.27737C17.1985 5.76062 15.1414 4.90853 12.9964 4.90853C10.8514 4.90853 8.79423 5.76062 7.27749 7.27737C5.76075 8.79411 4.90865 10.8513 4.90865 12.9962C4.90865 15.1412 5.76075 17.1984 7.27749 18.7151C8.79423 20.2319 10.8514 21.084 12.9964 21.084V21.084ZM14.0073 12.9962H18.0512V15.0182H11.9854V7.94142H14.0073V12.9962Z" fill="white"/>
</svg>
