<svg width="60" height="60" viewBox="0 0 60 60" fill="none" xmlns="http://www.w3.org/2000/svg">
<rect width="60" height="60" rx="20" fill="#2D3242"/>
<path d="M30.0791 42L18.8085 23.495C18.8085 23.495 18.254 22.5618 18.1993 21.8958C18.1421 21.1981 18.2965 20.7842 18.5801 20.1443C18.8438 19.5491 19.7193 18.9616 19.7985 19.002H30.0791M30.0791 42L41.2735 23.7234C41.2735 23.7234 41.7863 22.6866 41.8066 21.9719C41.8238 21.3656 41.7986 20.9779 41.502 20.4489C41.2857 20.0632 41.0927 19.8784 40.7404 19.6112C40.23 19.2241 39.2174 19.002 39.2174 19.002H30.0791M30.0791 42V19.002" stroke="white" stroke-width="2.61882"/>
</svg>
