<svg width="16" height="16" viewBox="0 0 16 16" fill="none" xmlns="http://www.w3.org/2000/svg">
<path d="M12.6673 13.3334H3.33398V14C3.33398 14.1768 3.26375 14.3464 3.13872 14.4714C3.0137 14.5964 2.84413 14.6667 2.66732 14.6667H2.00065C1.82384 14.6667 1.65427 14.5964 1.52925 14.4714C1.40422 14.3464 1.33398 14.1768 1.33398 14V7.33335L2.98732 3.47469C3.0902 3.23469 3.26129 3.03018 3.47935 2.88654C3.69742 2.7429 3.95286 2.66646 4.21398 2.66669H11.7873C12.0482 2.66672 12.3034 2.74329 12.5212 2.88691C12.739 3.03053 12.9099 3.2349 13.0127 3.47469L14.6673 7.33335V14C14.6673 14.1768 14.5971 14.3464 14.4721 14.4714C14.347 14.5964 14.1775 14.6667 14.0007 14.6667H13.334C13.1572 14.6667 12.9876 14.5964 12.8626 14.4714C12.7376 14.3464 12.6673 14.1768 12.6673 14V13.3334ZM13.334 8.66669H2.66732V12H13.334V8.66669ZM2.78465 7.33335H13.2167L11.788 4.00002H4.21398L2.78532 7.33335H2.78465ZM4.33398 11.3334C4.06877 11.3334 3.81441 11.228 3.62688 11.0405C3.43934 10.8529 3.33398 10.5986 3.33398 10.3334C3.33398 10.0681 3.43934 9.81378 3.62688 9.62625C3.81441 9.43871 4.06877 9.33335 4.33398 9.33335C4.5992 9.33335 4.85355 9.43871 5.04109 9.62625C5.22863 9.81378 5.33398 10.0681 5.33398 10.3334C5.33398 10.5986 5.22863 10.8529 5.04109 11.0405C4.85355 11.228 4.5992 11.3334 4.33398 11.3334ZM11.6673 11.3334C11.4021 11.3334 11.1477 11.228 10.9602 11.0405C10.7727 10.8529 10.6673 10.5986 10.6673 10.3334C10.6673 10.0681 10.7727 9.81378 10.9602 9.62625C11.1477 9.43871 11.4021 9.33335 11.6673 9.33335C11.9325 9.33335 12.1869 9.43871 12.3744 9.62625C12.562 9.81378 12.6673 10.0681 12.6673 10.3334C12.6673 10.5986 12.562 10.8529 12.3744 11.0405C12.1869 11.228 11.9325 11.3334 11.6673 11.3334Z" fill="white"/>
</svg>
