<svg width="16" height="16" viewBox="0 0 16 16" fill="none" xmlns="http://www.w3.org/2000/svg">
<path d="M11.3337 5.33333H13.3337L15.3337 8.03733V12H13.977C13.8977 12.5562 13.6205 13.0651 13.1961 13.4333C12.7718 13.8015 12.2288 14.0042 11.667 14.0042C11.1052 14.0042 10.5622 13.8015 10.1379 13.4333C9.71351 13.0651 9.43624 12.5562 9.35699 12H5.97699C5.89774 12.5562 5.62047 13.0651 5.19611 13.4333C4.77175 13.8015 4.2288 14.0042 3.66699 14.0042C3.10518 14.0042 2.56223 13.8015 2.13787 13.4333C1.71352 13.0651 1.43625 12.5562 1.35699 12H0.666992V4C0.666992 3.82319 0.73723 3.65362 0.862254 3.52859C0.987279 3.40357 1.15685 3.33333 1.33366 3.33333H10.667C10.8438 3.33333 11.0134 3.40357 11.1384 3.52859C11.2634 3.65362 11.3337 3.82319 11.3337 4V5.33333ZM11.3337 6.66667V8.66667H14.0003V8.47667L12.6617 6.66667H11.3337Z" fill="white"/>
</svg>
